<svg xmlns="http://www.w3.org/2000/svg" width="900" height="52" viewBox="0 0 900 52" shape-rendering="crispEdges" role="img" aria-label="Core Algorithms"><style></style><rect width="900" height="52" fill="#1d1e21"/><rect width="900" height="4" fill="#8a8a8a"/><rect y="48" width="900" height="4" fill="#4a4a4a"/><rect width="4" height="52" fill="#8a8a8a"/><rect x="896" width="4" height="52" fill="#4a4a4a"/><rect x="20" y="18" width="16" height="16" fill="#d9a441"/><rect x="20" y="18" width="16" height="3" fill="#f3d089"/><rect x="20" y="31" width="16" height="3" fill="#9a7428"/><path fill="#000000" d="M57 16h12v3h-12zM54 19h3v3h-3zM54 22h3v3h-3zM54 25h3v3h-3zM54 28h3v3h-3zM54 31h3v3h-3zM57 34h12v3h-12zM75 16h9v3h-9zM72 19h3v3h-3zM84 19h3v3h-3zM72 22h3v3h-3zM84 22h3v3h-3zM72 25h3v3h-3zM84 25h3v3h-3zM72 28h3v3h-3zM84 28h3v3h-3zM72 31h3v3h-3zM84 31h3v3h-3zM75 34h9v3h-9zM90 16h12v3h-12zM90 19h3v3h-3zM102 19h3v3h-3zM90 22h3v3h-3zM102 22h3v3h-3zM90 25h12v3h-12zM90 28h3v3h-3zM96 28h3v3h-3zM90 31h3v3h-3zM99 31h3v3h-3zM90 34h3v3h-3zM102 34h3v3h-3zM108 16h15v3h-15zM108 19h3v3h-3zM108 22h3v3h-3zM108 25h12v3h-12zM108 28h3v3h-3zM108 31h3v3h-3zM108 34h15v3h-15zM138 16h9v3h-9zM135 19h3v3h-3zM147 19h3v3h-3zM135 22h3v3h-3zM147 22h3v3h-3zM135 25h15v3h-15zM135 28h3v3h-3zM147 28h3v3h-3zM135 31h3v3h-3zM147 31h3v3h-3zM135 34h3v3h-3zM147 34h3v3h-3zM153 16h3v3h-3zM153 19h3v3h-3zM153 22h3v3h-3zM153 25h3v3h-3zM153 28h3v3h-3zM153 31h3v3h-3zM153 34h15v3h-15zM174 16h12v3h-12zM171 19h3v3h-3zM171 22h3v3h-3zM171 25h3v3h-3zM180 25h6v3h-6zM171 28h3v3h-3zM183 28h3v3h-3zM171 31h3v3h-3zM183 31h3v3h-3zM174 34h9v3h-9zM192 16h9v3h-9zM189 19h3v3h-3zM201 19h3v3h-3zM189 22h3v3h-3zM201 22h3v3h-3zM189 25h3v3h-3zM201 25h3v3h-3zM189 28h3v3h-3zM201 28h3v3h-3zM189 31h3v3h-3zM201 31h3v3h-3zM192 34h9v3h-9zM207 16h12v3h-12zM207 19h3v3h-3zM219 19h3v3h-3zM207 22h3v3h-3zM219 22h3v3h-3zM207 25h12v3h-12zM207 28h3v3h-3zM213 28h3v3h-3zM207 31h3v3h-3zM216 31h3v3h-3zM207 34h3v3h-3zM219 34h3v3h-3zM225 16h15v3h-15zM231 19h3v3h-3zM231 22h3v3h-3zM231 25h3v3h-3zM231 28h3v3h-3zM231 31h3v3h-3zM225 34h15v3h-15zM243 16h15v3h-15zM249 19h3v3h-3zM249 22h3v3h-3zM249 25h3v3h-3zM249 28h3v3h-3zM249 31h3v3h-3zM249 34h3v3h-3zM261 16h3v3h-3zM273 16h3v3h-3zM261 19h3v3h-3zM273 19h3v3h-3zM261 22h3v3h-3zM273 22h3v3h-3zM261 25h15v3h-15zM261 28h3v3h-3zM273 28h3v3h-3zM261 31h3v3h-3zM273 31h3v3h-3zM261 34h3v3h-3zM273 34h3v3h-3zM279 16h3v3h-3zM291 16h3v3h-3zM279 19h6v3h-6zM288 19h6v3h-6zM279 22h3v3h-3zM285 22h3v3h-3zM291 22h3v3h-3zM279 25h3v3h-3zM285 25h3v3h-3zM291 25h3v3h-3zM279 28h3v3h-3zM291 28h3v3h-3zM279 31h3v3h-3zM291 31h3v3h-3zM279 34h3v3h-3zM291 34h3v3h-3zM300 16h12v3h-12zM297 19h3v3h-3zM297 22h3v3h-3zM300 25h9v3h-9zM309 28h3v3h-3zM309 31h3v3h-3zM297 34h12v3h-12z"/><path fill="#ececec" d="M55 14h12v3h-12zM52 17h3v3h-3zM52 20h3v3h-3zM52 23h3v3h-3zM52 26h3v3h-3zM52 29h3v3h-3zM55 32h12v3h-12zM73 14h9v3h-9zM70 17h3v3h-3zM82 17h3v3h-3zM70 20h3v3h-3zM82 20h3v3h-3zM70 23h3v3h-3zM82 23h3v3h-3zM70 26h3v3h-3zM82 26h3v3h-3zM70 29h3v3h-3zM82 29h3v3h-3zM73 32h9v3h-9zM88 14h12v3h-12zM88 17h3v3h-3zM100 17h3v3h-3zM88 20h3v3h-3zM100 20h3v3h-3zM88 23h12v3h-12zM88 26h3v3h-3zM94 26h3v3h-3zM88 29h3v3h-3zM97 29h3v3h-3zM88 32h3v3h-3zM100 32h3v3h-3zM106 14h15v3h-15zM106 17h3v3h-3zM106 20h3v3h-3zM106 23h12v3h-12zM106 26h3v3h-3zM106 29h3v3h-3zM106 32h15v3h-15zM136 14h9v3h-9zM133 17h3v3h-3zM145 17h3v3h-3zM133 20h3v3h-3zM145 20h3v3h-3zM133 23h15v3h-15zM133 26h3v3h-3zM145 26h3v3h-3zM133 29h3v3h-3zM145 29h3v3h-3zM133 32h3v3h-3zM145 32h3v3h-3zM151 14h3v3h-3zM151 17h3v3h-3zM151 20h3v3h-3zM151 23h3v3h-3zM151 26h3v3h-3zM151 29h3v3h-3zM151 32h15v3h-15zM172 14h12v3h-12zM169 17h3v3h-3zM169 20h3v3h-3zM169 23h3v3h-3zM178 23h6v3h-6zM169 26h3v3h-3zM181 26h3v3h-3zM169 29h3v3h-3zM181 29h3v3h-3zM172 32h9v3h-9zM190 14h9v3h-9zM187 17h3v3h-3zM199 17h3v3h-3zM187 20h3v3h-3zM199 20h3v3h-3zM187 23h3v3h-3zM199 23h3v3h-3zM187 26h3v3h-3zM199 26h3v3h-3zM187 29h3v3h-3zM199 29h3v3h-3zM190 32h9v3h-9zM205 14h12v3h-12zM205 17h3v3h-3zM217 17h3v3h-3zM205 20h3v3h-3zM217 20h3v3h-3zM205 23h12v3h-12zM205 26h3v3h-3zM211 26h3v3h-3zM205 29h3v3h-3zM214 29h3v3h-3zM205 32h3v3h-3zM217 32h3v3h-3zM223 14h15v3h-15zM229 17h3v3h-3zM229 20h3v3h-3zM229 23h3v3h-3zM229 26h3v3h-3zM229 29h3v3h-3zM223 32h15v3h-15zM241 14h15v3h-15zM247 17h3v3h-3zM247 20h3v3h-3zM247 23h3v3h-3zM247 26h3v3h-3zM247 29h3v3h-3zM247 32h3v3h-3zM259 14h3v3h-3zM271 14h3v3h-3zM259 17h3v3h-3zM271 17h3v3h-3zM259 20h3v3h-3zM271 20h3v3h-3zM259 23h15v3h-15zM259 26h3v3h-3zM271 26h3v3h-3zM259 29h3v3h-3zM271 29h3v3h-3zM259 32h3v3h-3zM271 32h3v3h-3zM277 14h3v3h-3zM289 14h3v3h-3zM277 17h6v3h-6zM286 17h6v3h-6zM277 20h3v3h-3zM283 20h3v3h-3zM289 20h3v3h-3zM277 23h3v3h-3zM283 23h3v3h-3zM289 23h3v3h-3zM277 26h3v3h-3zM289 26h3v3h-3zM277 29h3v3h-3zM289 29h3v3h-3zM277 32h3v3h-3zM289 32h3v3h-3zM298 14h12v3h-12zM295 17h3v3h-3zM295 20h3v3h-3zM298 23h9v3h-9zM307 26h3v3h-3zM307 29h3v3h-3zM295 32h12v3h-12z"/><g id="vines"><rect x="0" y="0" width="6" height="6" fill="#4a7a3c"/><rect x="30" y="0" width="6" height="6" fill="#2f5229"/><rect x="120" y="0" width="6" height="6" fill="#4a7a3c"/><rect x="144" y="0" width="6" height="6" fill="#4a7a3c"/><rect x="168" y="0" width="6" height="6" fill="#4a7a3c"/><rect x="210" y="0" width="6" height="6" fill="#2f5229"/><rect x="234" y="0" width="6" height="6" fill="#4a7a3c"/><rect x="276" y="0" width="6" height="6" fill="#4a7a3c"/><rect x="282" y="0" width="6" height="6" fill="#2f5229"/><rect x="390" y="0" width="6" height="6" fill="#2f5229"/><rect x="444" y="0" width="6" height="6" fill="#2f5229"/><rect x="480" y="0" width="6" height="6" fill="#2f5229"/><rect x="522" y="0" width="6" height="6" fill="#4a7a3c"/><rect x="630" y="0" width="6" height="6" fill="#2f5229"/><rect x="684" y="0" width="6" height="6" fill="#2f5229"/><rect x="696" y="0" width="6" height="6" fill="#4a7a3c"/><rect x="720" y="0" width="6" height="6" fill="#2f5229"/><rect x="744" y="0" width="6" height="6" fill="#2f5229"/><rect x="864" y="0" width="6" height="6" fill="#2f5229"/><rect x="888" y="0" width="6" height="6" fill="#4a7a3c"/><rect x="894" y="0" width="6" height="6" fill="#4a7a3c"/><rect x="0" y="6" width="6" height="6" fill="#69a04f"/><rect x="6" y="6" width="6" height="6" fill="#4a7a3c"/><rect x="120" y="6" width="6" height="6" fill="#2f5229"/><rect x="144" y="6" width="6" height="6" fill="#2f5229"/><rect x="168" y="6" width="6" height="6" fill="#2f5229"/><rect x="234" y="6" width="6" height="6" fill="#2f5229"/><rect x="276" y="6" width="6" height="6" fill="#2f5229"/><rect x="522" y="6" width="6" height="6" fill="#2f5229"/><rect x="696" y="6" width="6" height="6" fill="#2f5229"/><rect x="888" y="6" width="6" height="6" fill="#2f5229"/><rect x="894" y="6" width="6" height="6" fill="#69a04f"/><rect x="0" y="12" width="6" height="6" fill="#4a7a3c"/><rect x="6" y="12" width="6" height="6" fill="#4a7a3c"/><rect x="888" y="12" width="6" height="6" fill="#4a7a3c"/><rect x="894" y="12" width="6" height="6" fill="#4a7a3c"/><rect x="0" y="18" width="6" height="6" fill="#2f5229"/><rect x="6" y="18" width="6" height="6" fill="#69a04f"/><rect x="888" y="18" width="6" height="6" fill="#4a7a3c"/><rect x="894" y="18" width="6" height="6" fill="#2f5229"/><rect x="0" y="24" width="6" height="6" fill="#69a04f"/><rect x="894" y="24" width="6" height="6" fill="#2f5229"/><rect x="852" y="28" width="6" height="6" fill="#4a7a3c"/><rect x="0" y="30" width="6" height="6" fill="#2f5229"/><rect x="852" y="34" width="6" height="6" fill="#4a7a3c"/><rect x="858" y="34" width="6" height="6" fill="#4a7a3c"/><rect x="870" y="34" width="6" height="6" fill="#4a7a3c"/><rect x="36" y="40" width="6" height="6" fill="#4a7a3c"/><rect x="42" y="40" width="6" height="6" fill="#69a04f"/><rect x="852" y="40" width="6" height="6" fill="#4a7a3c"/><rect x="858" y="40" width="6" height="6" fill="#4a7a3c"/><rect x="870" y="40" width="6" height="6" fill="#4a7a3c"/><rect x="24" y="46" width="6" height="6" fill="#2f5229"/><rect x="30" y="46" width="6" height="6" fill="#2f5229"/><rect x="36" y="46" width="6" height="6" fill="#2f5229"/><rect x="42" y="46" width="6" height="6" fill="#2f5229"/><rect x="48" y="46" width="6" height="6" fill="#2f5229"/><rect x="180" y="46" width="6" height="6" fill="#2f5229"/><rect x="186" y="46" width="6" height="6" fill="#2f5229"/><rect x="330" y="46" width="6" height="6" fill="#2f5229"/><rect x="336" y="46" width="6" height="6" fill="#2f5229"/><rect x="846" y="46" width="6" height="6" fill="#2f5229"/><rect x="852" y="46" width="6" height="6" fill="#2f5229"/><rect x="858" y="46" width="6" height="6" fill="#2f5229"/><rect x="864" y="46" width="6" height="6" fill="#2f5229"/><rect x="870" y="46" width="6" height="6" fill="#2f5229"/><rect x="876" y="46" width="6" height="6" fill="#2f5229"/></g></svg>